<?xml version="1.0" encoding="utf-8"?>
<!-- Generator: Adobe Illustrator 22.0.1, SVG Export Plug-In . SVG Version: 6.00 Build 0)  -->
<svg version="1.1" id="Layer_1" xmlns="http://www.w3.org/2000/svg" xmlns:xlink="http://www.w3.org/1999/xlink" x="0px" y="0px"
	 viewBox="0 0 2000 366" style="enable-background:new 0 0 2000 366;" xml:space="preserve">
<style type="text/css">
	.st0{fill:#666666;}
	.st1{fill:#BB0000;}
</style>
<g>
	<path class="st0" d="M58.9,203.6C19.1,203.6,0,177.1,0,138.9C0,97.6,24.3,73,60.2,73c40.6,0,57.6,24.6,57.6,63.3
		C117.8,182.1,91.9,203.6,58.9,203.6z M59.5,86.3c-27.2,0-41.7,19.6-41.7,50c0,38.9,16.3,53.7,41.5,53.7c25.9,0,40.8-18.5,40.8-52.4
		C100,101.5,86,86.3,59.5,86.3z M157.8,200.8c-4.3,0-16.9,0.2-24.8,0.4V191c10.4-0.7,14.1-1.3,15.6-3c1.1-1.5,1.3-3.3,1.3-11.9V99.6
		c0-6.9-0.4-9.6-1.3-10.9c-1.1-1.5-4.4-2.4-15.6-3.1v-10c7.8,0.2,20,0.6,24.3,0.6c4.6,0,18.3-0.4,26.3-0.6v10
		c-11.9,0.7-14.6,1.9-15.7,3.3c-0.9,1.3-1.1,3.7-1.1,10.7v29.5h59.8V99.8c0-6.9-0.4-9.8-1.5-11.1c-1.3-1.5-4.6-2.4-15.6-3.1v-10
		c7.8,0.2,20.4,0.6,24.6,0.6c4.6,0,18-0.4,26.1-0.6v10c-12,0.7-14.6,1.9-15.9,3.3c-0.9,1.3-1.1,3.7-1.1,10.7V176
		c0,8.5,0.2,10.6,1.1,11.7c1.5,1.7,3.9,2.6,15.9,3.3v10.2c-8.2-0.2-20.7-0.4-25.4-0.4c-4.3,0-17.6,0.2-25.4,0.4V191
		c10.4-0.7,14.1-1.3,15.6-3c1.3-1.5,1.5-3.3,1.5-11.9v-34.3h-59.8V176c0,8.5,0.2,10.6,1.1,11.7c1.3,1.7,4.1,2.6,15.7,3.3v10.2
		C175.6,201,162.6,200.8,157.8,200.8z M297.7,200.8c-4.3,0-17,0.2-25,0.4V191c10.4-0.7,14.1-1.5,15.6-3c1.1-1.3,1.3-3.3,1.3-11.9
		V99.6c0-6.9-0.4-9.6-1.3-10.9c-1.1-1.5-4.4-2.4-15.6-3.1v-10c6.5,0.2,18,0.6,24.5,0.6c6.7,0,18.3-0.4,26.1-0.6v10
		c-11.9,0.7-14.6,1.9-15.7,3.3c-0.9,1.3-1.1,3.7-1.1,10.7V176c0,8.5,0.2,10.4,1.1,11.5c1.5,1.9,4.6,2.8,15.7,3.5v10.2
		C315.3,201,302.5,200.8,297.7,200.8z M397.4,203.6c-39.8,0-58.9-26.5-58.9-64.6c0-41.3,24.3-65.9,60.2-65.9
		c40.6,0,57.6,24.6,57.6,63.3C456.3,182.1,430.3,203.6,397.4,203.6z M397.9,86.3c-27.2,0-41.7,19.6-41.7,50
		c0,38.9,16.3,53.7,41.5,53.7c25.9,0,40.8-18.5,40.8-52.4C438.5,101.5,424.4,86.3,397.9,86.3z M526.5,165.2
		c1.9,12,4.8,15.7,7.8,18.5c4.3,3.9,12.8,6.7,24.1,6.7c17.8,0,25.9-9.3,25.9-19.4c0-9.6-4.8-15-17-20.2l-23.2-9.8
		c-19.1-8.2-24.3-19.6-24.3-32.2c0-19.8,13.5-35.7,45.2-35.7c8.5,0,18.5,1.3,25.8,4.6c4.6,2.2,6.5,5.7,6.5,11.9
		c0,4.8-0.6,12-1.3,18.7h-9.1c-1.9-12-3.5-15.9-6.3-18.2c-3.3-2.8-10.2-3.9-19.3-3.9c-18,0-24.8,9.4-24.8,19.4
		c0,8.7,3.7,14.6,19.3,20.9L577,135c18.2,7.2,24.6,18.2,24.6,31.9c0,23.7-18.2,36.7-45,36.7c-10.9,0-22.4-2.2-28.9-5.4
		c-9.4-4.6-11.1-10-11.1-19.3c0-4.4,0.2-8.9,0.6-13.7H526.5z M669.9,200.8c-4.6,0-19.3,0.2-26.9,0.4V191c12.6-0.7,14.8-1.7,16.3-3.5
		c1.1-1.3,1.1-4.4,1.1-11.7V88.2c-24.5,0-27,0.6-30.2,2.8c-2.4,1.5-4.3,5.6-5.6,17.8h-8.7c-0.6-7.8-0.9-18.2-0.9-23
		c0-5.7,1.7-10,11.1-10h84.7c9.4,0,11.5,3.9,11.5,9.4c0,4.6-0.4,15.7-0.9,23.5h-8.9c-1.1-11.7-2.8-15.9-5.2-17.8
		c-3-2.2-5.9-2.8-30.2-2.8v87.2c0,7.4,0.4,10.2,1.3,11.9c1.1,1.9,3.7,2.8,16.5,3.7v10.2C687.5,201,674.3,200.8,669.9,200.8z
		 M735.8,200.8c-3.5,0-15.9,0.2-22,0.4V191c7-0.4,11.1-1.5,13-3c2.4-1.9,3.5-4.6,7.4-15l34.6-91.9c2.2-5.7,5.4-8.5,10.7-8.5
		c4.8,0,7.6,2.2,9.8,8.1l35.6,95.2c2.8,7.8,4.4,10.6,7,12.6c1.5,1.3,5.7,2.2,11.7,2.4v10.2c-6.9-0.2-19.6-0.4-24.3-0.4
		c-4.1,0-20.6,0.2-27.8,0.4V191c4.1-0.2,10.6-0.7,12.6-1.3c3.1-0.7,4.3-2.2,4.3-4.4c0-2-0.7-5.9-2.6-11.1l-6.5-17.2H754l-6.1,16.3
		c-1.7,4.8-2.8,8.9-2.8,11.9c0,1.7,0.6,3.3,2.4,4.1c2.4,0.9,9.3,1.5,14.6,1.9v10.2C755.6,201,739.7,200.8,735.8,200.8z M795.1,144.5
		c-13.2-35.4-16.9-45.8-18.7-51.7c-2.6,7.4-5.9,16.9-18.7,51.7H795.1z M890.3,200.8c-4.6,0-19.3,0.2-26.9,0.4V191
		c12.6-0.7,14.8-1.7,16.3-3.5c1.1-1.3,1.1-4.4,1.1-11.7V88.2c-24.5,0-27,0.6-30.2,2.8c-2.4,1.5-4.3,5.6-5.6,17.8h-8.7
		c-0.6-7.8-0.9-18.2-0.9-23c0-5.7,1.7-10,11.1-10h84.7c9.4,0,11.5,3.9,11.5,9.4c0,4.6-0.4,15.7-0.9,23.5h-8.9
		c-1.1-11.7-2.8-15.9-5.2-17.8c-3-2.2-5.9-2.8-30.2-2.8v87.2c0,7.4,0.4,10.2,1.3,11.9c1.1,1.9,3.7,2.8,16.5,3.7v10.2
		C907.9,201,894.7,200.8,890.3,200.8z M1049.2,195.6c-1.1,3.3-6.9,5.4-14.6,5.4h-80.4v-10c9.3-0.6,13.5-1.1,15.2-2.8
		c1.7-1.7,1.7-4.8,1.7-12V99.6c0-5.2-0.2-9.6-1.1-10.9c-1.3-1.9-4.6-2.4-15.7-3.1v-9.8h79.7c9.3,0,11.7,3.7,11.7,9.1
		c0,5-0.9,16.1-1.5,21.5h-9.8c-1.1-10.2-2.6-13.7-4.6-15.2c-2.8-2-7-2.6-21.3-2.6h-20.4v41.7h13c9.8,0,13.2-0.6,15.2-3.1
		c1.7-2,3-5.9,3.3-11.1h9.3c-0.4,4.8-0.4,14.4-0.4,19.8c0,3,0,13,0.4,20.6h-8.7c-0.9-7-2-9.4-3.5-11.5c-2-2.8-7-2.8-15.9-2.8h-12.6
		v37.8c0,5.4,1.3,7.2,5,7.8c4.8,0.6,12.6,0.7,17,0.7c17.6,0,23.3-1.9,26.5-5c2.6-2.8,4.8-8.5,6.9-15.6h9.3
		C1052.4,178.4,1051.3,190,1049.2,195.6z M1129.6,200.8c-3.9,0-16.7,0.2-26.1,0.4V186c11.3-0.6,13.9-1.5,15.2-3.7
		c0.9-1.9,1.1-6.3,1.1-15.4c0.2-18.5,0.6-47,0.6-57c0-8.7-0.4-13.5-1.1-15c-0.9-1.9-2.6-2.8-5.9-3.3c-2.4-0.6-6.1-0.7-10.2-0.9v-15
		c4.1,0.2,24.6,0.4,27.6,0.4c3.1,0,14.4,0,20.9-0.4c37.1,54.1,46.1,68,54.3,81.1c-0.7-18.5-0.7-39.8-1.1-47
		c-0.4-9.8-0.6-13-1.9-15.4c-1.3-2-4.3-3.3-15.6-3.7v-15c9.8,0.2,23.3,0.4,27.4,0.4c5.2,0,15.6-0.2,25.4-0.4v15
		c-9.8,0.6-12,1.3-14.3,3.1c-1.7,1.5-2,4.4-2.2,15.9c-0.2,10.2-0.2,24.5-0.2,46.5c0,6.9,0.2,25.6,0.2,33.3c0,8.9-3.5,13.5-13.7,13.5
		c-6.9,0-11.3-3.5-15-9.1c-40.2-60.4-48.2-72.4-56.9-86.1c0.2,25.4,0.6,42.2,0.7,59.3c0.2,11.3,0.6,14.3,1.9,15.9
		c1.7,1.9,4.1,2.4,15.2,3v15.2C1146.1,201,1135,200.8,1129.6,200.8z M1351.2,194.3c-1.5,4.1-8.5,6.7-17,6.7H1246v-15
		c9.1-0.7,13-1.3,14.6-3c1.5-1.7,1.5-4.6,1.5-11.7v-66.7c0-5.4,0-9.3-1.1-10.4c-1.7-2-4.6-2.8-15-3.7V75.8h88.4
		c9.3,0,13.5,3.7,13.5,9.4c0,6.5-1.5,20.4-2,25.2h-15.9c-1.3-8-2.8-12-4.8-13.5c-1.9-1.3-5.2-2-13.3-2h-21.3V128h7
		c6.5,0,10.7-0.4,12.8-2.8c1.7-1.9,3-6.3,3.7-10.4h14.1c-0.2,4.6-0.2,16.9-0.2,22c0,3.1,0,14.8,0.2,22.6h-13.5
		c-0.9-5.4-1.9-8.9-3.5-10.7c-2.4-2.4-6.7-2.6-13.5-2.6h-7v27.6c0,5,1.3,7.4,5,8c5,0.7,10.6,0.7,14.8,0.7c14.5,0,20.4-2,23.5-5
		c2.8-2.4,4.6-9.6,6.3-14.1h14.6C1354.5,172.4,1353.4,188,1351.2,194.3z M1536.6,93.5c-2.8,2.2-4.3,6.9-6.3,14.1l-22.2,82.4
		c-2.6,9.6-7.8,13.3-17.2,13.3c-9.6,0-14.1-3.1-16.7-12c-13.3-44.8-18.3-64.8-22-78.2c-3.1,13.5-8.3,32.8-21.5,76.9
		c-2.8,9.4-8.2,13.3-17.2,13.3c-9.3,0-14.3-3.1-16.5-12l-22.6-88.2c-1.3-5.2-3.1-9.1-6.1-10.6c-2.2-1.1-5.2-1.9-10.6-2v-15
		c11.7,0.2,27.2,0.4,32.2,0.4c5.7,0,27.8-0.2,31.5-0.4v15c-15.4,0.2-17.4,3.7-17.4,8.1c0,1.9,0.4,5.6,1.3,9.6
		c7.2,29.6,10,41.9,13.3,57.8c4.3-16.5,8.7-32.2,22-77.8c1.9-6.7,5.9-13.1,16.7-13.1c10.2,0,13,4.4,15.6,12.8
		c15,49.6,18.7,62.2,22.8,78.4c3-15.6,6.7-32.4,12.6-57.4c1.3-5.9,1.7-8.7,1.7-10.4c0-5-1.3-7.4-17.4-8v-15
		c9.1,0.2,25.6,0.4,31.1,0.4c4.1,0,17.8-0.2,24.6-0.4v15C1541.6,90.9,1538.3,92.2,1536.6,93.5z M1572.4,158.6
		c1.9,10.7,4.6,15.2,7.4,18.2c4.3,4.3,13.2,6.7,23.3,6.7c13.5,0,20-5.7,20-13.5c0-7.6-3.7-11.3-11.1-13.9l-23.9-8.7
		c-24.6-8.9-28.7-22.6-28.7-35.6c0-21.9,15.4-38.7,50-38.7c10.2,0,23,1.3,30.8,5.6c5,3,6.9,6.9,6.9,14.8c0,4.8-0.7,14.6-1.5,21.3
		h-14.4c-1.5-10.4-3.3-15.2-6.3-18c-3.1-2.8-10.4-3.7-18.3-3.7c-13.7,0-18.5,5.9-18.5,13c0,5.9,2.6,10.6,11.7,13.9l23.5,8.5
		c19.5,7,29.1,17.4,29.1,35.2c0,27-21.1,40-50.8,40c-11.1,0-23.7-1.9-30.6-5c-11.5-5-13.7-11.3-13.7-21.3c0-7.6,0.6-14.1,1.1-18.7
		H1572.4z M1036.8,271.2c0-13.2,9-23.4,22.3-23.4c8.2,0,13,3.3,16.4,7.8l-4.6,4.3c-3-4.1-6.8-5.8-11.4-5.8
		c-9.5,0-15.5,7.3-15.5,17.2c0,9.9,5.9,17.3,15.5,17.3c4.6,0,8.4-1.9,11.4-5.8l4.6,4.3c-3.4,4.4-8.2,7.8-16.4,7.8
		C1045.8,294.7,1036.8,284.5,1036.8,271.2z M1082.6,271.2c0-13,8.5-23.4,22.1-23.4c13.6,0,22.1,10.5,22.1,23.4
		c0,13-8.5,23.5-22.1,23.5C1091.2,294.7,1082.6,284.1,1082.6,271.2z M1119.6,271.2c0-9.1-5.3-17.2-14.8-17.2
		c-9.5,0-14.9,8.1-14.9,17.2c0,9.2,5.4,17.3,14.9,17.3C1114.3,288.5,1119.6,280.3,1119.6,271.2z M1168.4,293.6v-29.3
		c0-7.9-4-10.4-10-10.4c-5.5,0-10.7,3.3-13.2,6.9v32.7h-6.9v-44.7h6.9v6.5c3.1-3.7,9.3-7.6,15.9-7.6c9.4,0,14.3,4.7,14.3,14.4v31.4
		H1168.4z M1219.4,293.6v-29.3c0-7.9-4-10.4-10-10.4c-5.5,0-10.7,3.3-13.2,6.9v32.7h-6.9v-44.7h6.9v6.5c3.1-3.7,9.3-7.6,15.9-7.6
		c9.4,0,14.3,4.7,14.3,14.4v31.4H1219.4z M1237.7,271.2c0-13,9.3-23.4,22-23.4c13.5,0,21.5,10.6,21.5,24v1.8H1245
		c0.6,8.4,6.5,15.5,16.1,15.5c5.1,0,10.3-2,13.8-5.6l3.3,4.5c-4.4,4.4-10.5,6.9-17.8,6.9C1247.2,294.7,1237.7,285.2,1237.7,271.2z
		 M1259.6,253.5c-9.5,0-14.3,8.1-14.6,14.9h29.4C1274.3,261.7,1269.8,253.5,1259.6,253.5z M1289.8,271.2c0-13.2,9-23.4,22.3-23.4
		c8.2,0,13,3.3,16.4,7.8l-4.6,4.3c-3-4.1-6.8-5.8-11.4-5.8c-9.5,0-15.5,7.3-15.5,17.2c0,9.9,5.9,17.3,15.5,17.3
		c4.6,0,8.4-1.9,11.4-5.8l4.6,4.3c-3.4,4.4-8.2,7.8-16.4,7.8C1298.8,294.7,1289.8,284.5,1289.8,271.2z M1339.7,284.2V255h-7.4v-6.1
		h7.4v-12.2h6.9v12.2h9.1v6.1h-9.1v27.8c0,3.3,1.5,5.7,4.5,5.7c1.9,0,3.8-0.8,4.7-1.9l2,5.2c-1.8,1.7-4.3,2.9-8.3,2.9
		C1343,294.7,1339.7,290.9,1339.7,284.2z M1364.3,237.8c0-2.6,2.1-4.7,4.6-4.7c2.6,0,4.7,2.1,4.7,4.7c0,2.6-2.1,4.6-4.7,4.6
		C1366.4,242.5,1364.3,240.4,1364.3,237.8z M1365.5,293.6v-44.7h6.9v44.7H1365.5z M1416.5,293.6v-29.3c0-7.9-4-10.4-10-10.4
		c-5.5,0-10.7,3.3-13.2,6.9v32.7h-6.9v-44.7h6.9v6.5c3.1-3.7,9.3-7.6,15.9-7.6c9.4,0,14.3,4.7,14.3,14.4v31.4H1416.5z M1437.3,305.1
		l3.5-5.2c3.7,4.4,8.2,6.1,14.5,6.1c7.4,0,14.4-3.6,14.4-13.4v-6.4c-3.2,4.5-8.7,8-15,8c-11.7,0-19.9-8.7-19.9-23.2
		c0-14.4,8.2-23.2,19.9-23.2c6,0,11.4,3,15,7.9v-6.8h6.9v43.4c0,14.8-10.4,19.4-21.3,19.4C1447.8,311.7,1442.6,310.3,1437.3,305.1z
		 M1469.7,280.7v-19.5c-2.4-3.9-7.8-7.2-13.3-7.2c-9,0-14.4,7.1-14.4,17c0,9.8,5.4,17,14.4,17C1461.9,288,1467.3,284.6,1469.7,280.7
		z M1513.1,304.8c1,0.5,2.7,0.7,3.8,0.7c3.1,0,5.1-1,6.7-4.7l3-6.8l-18.7-45.2h7.5l14.9,36.7l14.8-36.7h7.6l-22.4,53.8
		c-2.7,6.5-7.2,9-13.2,9.1c-1.5,0-3.8-0.3-5.1-0.6L1513.1,304.8z M1557.2,271.2c0-13,8.5-23.4,22.1-23.4c13.6,0,22.1,10.5,22.1,23.4
		c0,13-8.5,23.5-22.1,23.5C1565.8,294.7,1557.2,284.1,1557.2,271.2z M1594.2,271.2c0-9.1-5.3-17.2-14.8-17.2
		c-9.5,0-14.9,8.1-14.9,17.2c0,9.2,5.4,17.3,14.9,17.3C1588.9,288.5,1594.2,280.3,1594.2,271.2z M1643,293.6v-6.3
		c-3.4,3.9-9.3,7.4-15.9,7.4c-9.4,0-14.3-4.5-14.3-14.3v-31.6h6.9v29.4c0,7.9,4,10.2,10,10.2c5.5,0,10.7-3.1,13.2-6.8v-32.9h6.9
		v44.7H1643z"/>
	<path class="st1" d="M1837.3,254.2l-71.3-57.1l81.2-14.3l6.4,60.3C1847.1,245,1841.4,248.9,1837.3,254.2z M1749,199.6l-29.6,3.8
		V231l98.4,24L1749,199.6z M1975.4,151.7l-23.8-17.9l-98.2-5.7l4.3,41.1L1975.4,151.7z M1719.4,68.6v10.1l103-33.6l-74.7-4.9
		L1719.4,68.6z M2000,148.1v-11.6l-26.9-1.6l19.4,14.3L2000,148.1z M1885,37.3l89.4,5.8l-26.4-26.4L1885,37.3z M1852.1,116l82.3,4.8
		l-88.9-66.9L1852.1,116z M1719.4,91.2v17.1l120.7,7l-6.5-61.3L1719.4,91.2z M1955.9,122l44.1,2.6v-56l-12.8-12.8l-130.6-8.5
		L1955.9,122z M1734.9,189.6l-15.6-10.1v12.1L1734.9,189.6z M1719.4,120.2v45.7l32.6,21.2l94-16.2l-4.6-43.6L1719.4,120.2z
		 M1852.9,35.2l85.7-27.9l-7.3-7.3h-91.5l3.6,34.6L1852.9,35.2z M2000,246.7l-91.5,23.4l91.5,6.2V246.7z M2000,234.4v-74.3l-5,0.8
		l-102.5,100.6c0,0.1,0.1,0.2,0.1,0.3L2000,234.4z M1977.4,162.6L1859,181l6.4,60.8c0.8,0.1,1.6,0.1,2.5,0.3
		c7.1,1.1,13.3,4.6,18,9.4L1977.4,162.6z M2000,288.2l-101.3-6.9l82.6,34.8l18.7-18.7V288.2z M1952.5,344.8l19.7-19.7l-76.6-32.3
		L1952.5,344.8z M1883.8,298.2c-3.4,2.9-7.4,5.1-11.8,6.4l6.5,61.3h52.9l12.7-12.7L1883.8,298.2z M1758.9,29.1l72.5,4.7L1827.9,0
		H1788L1758.9,29.1z M1862.5,328.2l-6,37.8h10L1862.5,328.2z M1830.8,270.4l-111.5-27.2v54.2L1730,308l102.4-23.4
		C1830.9,280.2,1830.3,275.3,1830.8,270.4z M1800.7,304.1L1740,318L1754,332L1800.7,304.1z M1854.2,304.9c-3.5-1-6.7-2.5-9.5-4.4
		l-42.5,65.6h42.2L1854.2,304.9z M1830.8,300l-68.1,40.8L1788,366L1830.8,300z"/>
</g>
</svg>
