<?xml version="1.0" encoding="utf-8"?>
<!-- Generator: Adobe Illustrator 18.1.1, SVG Export Plug-In . SVG Version: 6.00 Build 0)  -->
<svg version="1.1" id="Layer_1" xmlns="http://www.w3.org/2000/svg" xmlns:xlink="http://www.w3.org/1999/xlink" x="0px" y="0px"
	 viewBox="0 0 604 646" enable-background="new 0 0 604 646" xml:space="preserve">
<path fill="#666666" d="M147.6,204c-28.9,0-42.8-19.2-42.8-47c0-30,17.6-47.9,43.7-47.9c29.5,0,41.8,17.9,41.8,46
	C190.4,188.4,171.5,204,147.6,204z M148,118.9c-19.8,0-30.3,14.3-30.3,36.3c0,28.3,11.8,39,30.1,39c18.8,0,29.6-13.5,29.6-38.1
	C177.5,129.9,167.2,118.9,148,118.9z M240.4,202c-3.1,0-12.2,0.1-18,0.3v-7.4c7.5-0.5,10.2-0.9,11.3-2.2c0.8-1.1,0.9-2.4,0.9-8.6
	v-55.6c0-5-0.3-7-0.9-7.9c-0.8-1.1-3.2-1.7-11.3-2.3v-7.3c5.6,0.1,14.5,0.4,17.6,0.4c3.4,0,13.3-0.3,19.1-0.4v7.3
	c-8.6,0.5-10.6,1.3-11.4,2.4c-0.7,0.9-0.8,2.7-0.8,7.8v21.4h43.4v-21.3c0-5-0.3-7.1-1.1-8.1c-0.9-1.1-3.4-1.7-11.3-2.3v-7.3
	c5.6,0.1,14.8,0.4,17.9,0.4c3.4,0,13-0.3,19-0.4v7.3c-8.7,0.5-10.6,1.3-11.6,2.4c-0.7,0.9-0.8,2.7-0.8,7.8V184
	c0,6.2,0.1,7.7,0.8,8.5c1.1,1.2,2.8,1.9,11.6,2.4v7.4c-5.9-0.1-15.1-0.3-18.4-0.3c-3.1,0-12.8,0.1-18.4,0.3v-7.4
	c7.5-0.5,10.2-0.9,11.3-2.2c0.9-1.1,1.1-2.4,1.1-8.6v-24.9h-43.4V184c0,6.2,0.1,7.7,0.8,8.5c0.9,1.2,3,1.9,11.4,2.4v7.4
	C253.4,202.2,243.9,202,240.4,202z M363,202c-3.1,0-12.4,0.1-18.2,0.3v-7.4c7.5-0.5,10.2-1.1,11.3-2.2c0.8-0.9,0.9-2.4,0.9-8.6
	v-55.6c0-5-0.3-7-0.9-7.9c-0.8-1.1-3.2-1.7-11.3-2.3v-7.3c4.7,0.1,13,0.4,17.8,0.4c4.8,0,13.3-0.3,19-0.4v7.3
	c-8.6,0.5-10.6,1.3-11.4,2.4c-0.7,0.9-0.8,2.7-0.8,7.8V184c0,6.2,0.1,7.5,0.8,8.3c1.1,1.3,3.4,2,11.4,2.6v7.4
	C375.8,202.2,366.5,202,363,202z M456.4,204c-28.9,0-42.8-19.2-42.8-47c0-30,17.6-47.9,43.7-47.9c29.5,0,41.8,17.9,41.8,46
	C499.2,188.4,480.3,204,456.4,204z M456.8,118.9c-19.8,0-30.3,14.3-30.3,36.3c0,28.3,11.8,39,30.1,39c18.8,0,29.6-13.5,29.6-38.1
	C486.3,129.9,476,118.9,456.8,118.9z M113.4,310.8c1.3,8.7,3.5,11.4,5.6,13.5c3.1,2.8,9.3,4.8,17.5,4.8c12.9,0,18.8-6.7,18.8-14.1
	c0-7-3.5-10.9-12.4-14.7l-16.8-7.1c-13.9-5.9-17.6-14.3-17.6-23.4c0-14.4,9.8-26,32.8-26c6.2,0,13.5,0.9,18.7,3.4
	c3.4,1.6,4.7,4.2,4.7,8.6c0,3.5-0.4,8.7-0.9,13.6h-6.6c-1.3-8.7-2.6-11.6-4.6-13.2c-2.4-2-7.4-2.8-14-2.8c-13,0-18,6.9-18,14.1
	c0,6.3,2.7,10.6,14,15.2l15.5,6.2C163.3,294.1,168,302,168,312c0,17.2-13.2,26.6-32.7,26.6c-7.9,0-16.3-1.6-21-3.9
	c-6.9-3.4-8.1-7.3-8.1-14c0-3.2,0.1-6.5,0.4-10H113.4z M218.9,336.6c-3.4,0-14,0.1-19.5,0.3v-7.4c9.1-0.5,10.8-1.2,11.8-2.6
	c0.8-0.9,0.8-3.2,0.8-8.5v-63.6c-17.8,0-19.6,0.4-21.9,2c-1.7,1.1-3.1,4-4,12.9h-6.3c-0.4-5.7-0.7-13.2-0.7-16.7
	c0-4.2,1.2-7.3,8.1-7.3h61.5c6.9,0,8.3,2.8,8.3,6.9c0,3.4-0.3,11.4-0.7,17.1h-6.5c-0.8-8.5-2-11.6-3.8-12.9c-2.2-1.6-4.3-2-21.9-2
	v63.4c0,5.4,0.3,7.4,0.9,8.6c0.8,1.3,2.7,2,12,2.7v7.4C231.7,336.7,222.1,336.6,218.9,336.6z M268.2,336.6c-2.6,0-11.6,0.1-16,0.3
	v-7.4c5.1-0.3,8.1-1.1,9.4-2.2c1.7-1.3,2.6-3.4,5.4-10.9l25.2-66.7c1.6-4.2,3.9-6.2,7.8-6.2c3.5,0,5.5,1.6,7.1,5.9l25.8,69.2
	c2,5.7,3.2,7.7,5.1,9.2c1.1,0.9,4.2,1.6,8.5,1.7v7.4c-5-0.1-14.3-0.3-17.6-0.3c-3,0-14.9,0.1-20.2,0.3v-7.4c3-0.1,7.7-0.5,9.1-0.9
	c2.3-0.5,3.1-1.6,3.1-3.2c0-1.5-0.5-4.3-1.9-8.1l-4.7-12.5h-33l-4.4,11.8c-1.2,3.5-2,6.5-2,8.6c0,1.2,0.4,2.4,1.7,3
	c1.7,0.7,6.7,1.1,10.6,1.3v7.4C282.6,336.7,271,336.6,268.2,336.6z M311.2,295.7c-9.6-25.7-12.2-33.2-13.6-37.5
	c-1.9,5.4-4.3,12.2-13.6,37.5H311.2z M381.7,336.6c-3.4,0-14,0.1-19.5,0.3v-7.4c9.1-0.5,10.8-1.2,11.8-2.6c0.8-0.9,0.8-3.2,0.8-8.5
	v-63.6c-17.8,0-19.6,0.4-21.9,2c-1.7,1.1-3.1,4-4,12.9h-6.3c-0.4-5.7-0.7-13.2-0.7-16.7c0-4.2,1.2-7.3,8.1-7.3h61.5
	c6.9,0,8.3,2.8,8.3,6.9c0,3.4-0.3,11.4-0.7,17.1h-6.5c-0.8-8.5-2-11.6-3.8-12.9c-2.2-1.6-4.3-2-21.9-2v63.4c0,5.4,0.3,7.4,0.9,8.6
	c0.8,1.3,2.7,2,12,2.7v7.4C394.5,336.7,384.9,336.6,381.7,336.6z M498.5,332.8c-0.8,2.4-5,3.9-10.6,3.9h-58.4v-7.3
	c6.7-0.4,9.8-0.8,11-2c1.2-1.2,1.2-3.5,1.2-8.7v-55.6c0-3.8-0.1-7-0.8-7.9c-0.9-1.3-3.4-1.7-11.4-2.3v-7.1h57.8
	c6.7,0,8.5,2.7,8.5,6.6c0,3.6-0.7,11.7-1.1,15.6h-7.1c-0.8-7.4-1.9-10-3.4-11c-2-1.5-5.1-1.9-15.5-1.9H454v30.3h9.4
	c7.1,0,9.6-0.4,11-2.3c1.2-1.5,2.2-4.3,2.4-8.1h6.7c-0.3,3.5-0.3,10.5-0.3,14.4c0,2.2,0,9.4,0.3,14.9h-6.3c-0.7-5.1-1.5-6.9-2.6-8.3
	c-1.5-2-5.1-2-11.6-2H454v27.5c0,3.9,0.9,5.2,3.6,5.7c3.5,0.4,9.1,0.5,12.4,0.5c12.8,0,16.9-1.3,19.2-3.6c1.9-2,3.5-6.2,5-11.3h6.7
	C500.8,320.3,500,328.8,498.5,332.8z M120.2,471.2c-2.8,0-12.1,0.1-19,0.3v-11c8.2-0.4,10.1-1.1,11-2.7c0.7-1.3,0.8-4.6,0.8-11.2
	c0.1-13.5,0.4-34.2,0.4-41.4c0-6.3-0.3-9.8-0.8-10.9c-0.7-1.3-1.9-2-4.3-2.4c-1.7-0.4-4.4-0.5-7.4-0.7v-10.9c3,0.1,17.9,0.3,20,0.3
	c2.3,0,10.5,0,15.2-0.3c26.9,39.3,33.5,49.4,39.4,58.9c-0.5-13.5-0.5-28.9-0.8-34.2c-0.3-7.1-0.4-9.4-1.3-11.2
	c-0.9-1.5-3.1-2.4-11.3-2.7v-10.9c7.1,0.1,16.9,0.3,19.9,0.3c3.8,0,11.3-0.1,18.4-0.3v10.9c-7.1,0.4-8.7,0.9-10.4,2.3
	c-1.2,1.1-1.5,3.2-1.6,11.6c-0.1,7.4-0.1,17.8-0.1,33.8c0,5,0.1,18.6,0.1,24.2c0,6.5-2.6,9.8-10,9.8c-5,0-8.2-2.6-10.9-6.6
	c-29.2-43.9-35-52.6-41.3-62.6c0.1,18.4,0.4,30.7,0.5,43.1c0.1,8.2,0.4,10.4,1.3,11.6c1.2,1.3,3,1.7,11,2.2v11
	C132.1,471.3,124.1,471.2,120.2,471.2z M281.3,466.4c-1.1,3-6.2,4.8-12.4,4.8h-64v-10.9c6.6-0.5,9.4-0.9,10.6-2.2
	c1.1-1.2,1.1-3.4,1.1-8.5v-48.4c0-3.9,0-6.7-0.8-7.5c-1.2-1.5-3.4-2-10.9-2.7v-10.8H269c6.7,0,9.8,2.7,9.8,6.9
	c0,4.7-1.1,14.8-1.5,18.3h-11.6c-0.9-5.8-2-8.7-3.5-9.8c-1.3-0.9-3.8-1.5-9.7-1.5h-15.5v24.1h5.1c4.7,0,7.8-0.3,9.3-2
	c1.2-1.3,2.2-4.6,2.7-7.5h10.2c-0.1,3.4-0.1,12.2-0.1,16c0,2.3,0,10.8,0.1,16.4h-9.8c-0.7-3.9-1.3-6.5-2.6-7.8
	c-1.7-1.7-4.8-1.9-9.8-1.9h-5.1v20.1c0,3.6,0.9,5.4,3.6,5.8c3.6,0.5,7.7,0.5,10.8,0.5c10.5,0,14.8-1.5,17.1-3.6
	c2-1.7,3.4-7,4.6-10.2h10.6C283.7,450.6,282.9,461.9,281.3,466.4z M416.2,393.2c-2,1.6-3.1,5-4.6,10.2l-16.1,59.9
	c-1.9,7-5.6,9.7-12.5,9.7c-7,0-10.2-2.3-12.1-8.7c-9.7-32.6-13.3-47.1-16-56.8c-2.3,9.8-6.1,23.8-15.6,55.8c-2,6.9-5.9,9.7-12.5,9.7
	c-6.7,0-10.4-2.3-12-8.7l-16.4-64.1c-0.9-3.8-2.3-6.6-4.4-7.7c-1.6-0.8-3.8-1.3-7.7-1.5v-10.9c8.5,0.1,19.8,0.3,23.4,0.3
	c4.2,0,20.2-0.1,22.9-0.3v10.9c-11.2,0.1-12.6,2.7-12.6,5.9c0,1.3,0.3,4,0.9,7c5.2,21.5,7.3,30.4,9.7,42c3.1-12,6.3-23.4,16-56.5
	c1.3-4.8,4.3-9.6,12.1-9.6c7.4,0,9.4,3.2,11.3,9.3c10.9,36.1,13.6,45.2,16.5,56.9c2.2-11.3,4.8-23.5,9.1-41.7
	c0.9-4.3,1.2-6.3,1.2-7.5c0-3.6-0.9-5.4-12.6-5.8v-10.9c6.6,0.1,18.6,0.3,22.6,0.3c3,0,12.9-0.1,17.9-0.3v10.9
	C419.8,391.4,417.4,392.3,416.2,393.2z M442.4,440.5c1.3,7.8,3.4,11,5.4,13.2c3.1,3.1,9.5,4.8,16.9,4.8c9.8,0,14.5-4.2,14.5-9.8
	c0-5.5-2.7-8.2-8.1-10.1l-17.4-6.3c-17.9-6.5-20.9-16.4-20.9-25.8c0-15.9,11.2-28.1,36.3-28.1c7.4,0,16.7,0.9,22.3,4
	c3.6,2.2,5,5,5,10.8c0,3.5-0.5,10.6-1.1,15.5H485c-1.1-7.5-2.4-11-4.6-13.1c-2.3-2-7.5-2.7-13.3-2.7c-10,0-13.5,4.3-13.5,9.4
	c0,4.3,1.9,7.7,8.5,10.1l17.1,6.2c14.1,5.1,21.1,12.6,21.1,25.6c0,19.6-15.3,29.1-36.9,29.1c-8.1,0-17.2-1.3-22.2-3.6
	c-8.3-3.6-10-8.2-10-15.5c0-5.5,0.4-10.2,0.8-13.6H442.4z"/>
</svg>
