<?xml version="1.0" encoding="utf-8"?>
<!-- Generator: Adobe Illustrator 22.0.1, SVG Export Plug-In . SVG Version: 6.00 Build 0)  -->
<svg version="1.1" id="Layer_1" xmlns="http://www.w3.org/2000/svg" xmlns:xlink="http://www.w3.org/1999/xlink" x="0px" y="0px"
	 viewBox="0 0 1055 655" style="enable-background:new 0 0 1055 655;" xml:space="preserve">
<style type="text/css">
	.st0{fill:#BB0000;}
	.st1{fill:#666666;}
</style>
<g>
	<path class="st0" d="M211.1,454.9L83.4,352.7l145.3-25.5l11.4,107.9C228.6,438.5,218.4,445.5,211.1,454.9z M53,357.2L0,364v49.4
		l176.2,42.9L53,357.2z M458.2,271.4l-42.6-32.1l-175.8-10.2l7.8,73.6L458.2,271.4z M0,122.8v18l184.4-60.1L50.8,72.1L0,122.8z
		 M296.4,66.7l160.1,10.4l-47.2-47.2L296.4,66.7z M502.2,265v-20.7l-48.2-2.8l34.7,25.5L502.2,265z M27.9,339.4L0,321.3V343
		L27.9,339.4z M423.3,218.4l78.9,4.6V122.8l-22.9-22.9L245.6,84.7L423.3,218.4z M237.5,207.6l147.3,8.5l-159-119.7L237.5,207.6z
		 M239,62.9l153.3-50l-13-13H215.6l6.5,61.8L239,62.9z M0,215.2v81.7l58.3,37.9l168.1-28.9l-8.2-78L0,215.2z M0,163.2v30.6l216,12.5
		L204.4,96.6L0,163.2z M461.8,291l-212,32.9l11.5,108.8c1.5,0.1,2.9,0.2,4.4,0.5c12.8,2.1,23.8,8.2,32.2,16.8L461.8,291z
		 M502.2,419.5V286.6l-8.9,1.5L309.8,468.2c0.1,0.1,0.1,0.3,0.2,0.5L502.2,419.5z M502.2,515.7l-181.3-12.4l147.9,62.3l33.4-33.4
		V515.7z M70.8,52l129.7,8.4L194.2,0h-71.4L70.8,52z M417.2,617.1l35.2-35.2l-137.1-57.8L417.2,617.1z M294.2,533.7
		c-6.1,5.2-13.3,9.2-21.1,11.5L284.7,655h94.6l22.8-22.8L294.2,533.7z M502.2,441.6l-163.8,41.9l163.8,11V441.6z M199.5,483.9
		L0,435.3v96.9l19.1,19.1l183.3-41.9C199.5,501.4,198.5,492.8,199.5,483.9z M145.6,544.2L36.9,569.1L62,594.2L145.6,544.2z
		 M256.2,587.4L245.4,655h17.9L256.2,587.4z M199.4,536.8l-121.8,73l45.2,45.2L199.4,536.8z M241.3,545.6c-6.2-1.7-11.9-4.4-17-7.9
		L148.2,655h75.6L241.3,545.6z"/>
	<path class="st1" d="M618.8,177.7c-35.7,0-52.8-23.7-52.8-57.9c0-37,21.7-59.1,53.9-59.1c36.3,0,51.6,22.1,51.6,56.8
		C671.6,158.4,648.3,177.7,618.8,177.7z M619.3,72.6c-24.4,0-37.3,17.6-37.3,44.8c0,34.9,14.6,48.1,37.2,48.1
		c23.2,0,36.5-16.6,36.5-47C655.6,86.2,643,72.6,619.3,72.6z M733.3,175.2c-3.8,0-15.1,0.2-22.2,0.3v-9.1c9.3-0.7,12.6-1.2,13.9-2.7
		c1-1.3,1.2-3,1.2-10.6V84.6c0-6.1-0.3-8.6-1.2-9.8c-1-1.3-4-2.2-13.9-2.8v-9c7,0.2,17.9,0.5,21.7,0.5c4.1,0,16.4-0.3,23.6-0.5v9
		c-10.6,0.7-13.1,1.7-14.1,3c-0.8,1.2-1,3.3-1,9.6V111h53.6V84.7c0-6.1-0.3-8.8-1.3-10c-1.2-1.3-4.1-2.2-13.9-2.8v-9
		c7,0.2,18.3,0.5,22.1,0.5c4.1,0,16.1-0.3,23.4-0.5v9c-10.8,0.7-13.1,1.7-14.3,3c-0.8,1.2-1,3.3-1,9.6V153c0,7.6,0.2,9.5,1,10.5
		c1.3,1.5,3.5,2.3,14.3,3v9.1c-7.3-0.2-18.6-0.3-22.7-0.3c-3.8,0-15.8,0.2-22.7,0.3v-9.1c9.3-0.7,12.6-1.2,13.9-2.7
		c1.2-1.3,1.3-3,1.3-10.6v-30.7h-53.6V153c0,7.6,0.2,9.5,1,10.5c1.2,1.5,3.7,2.3,14.1,3v9.1C749.3,175.4,737.7,175.2,733.3,175.2z
		 M884.6,175.2c-3.8,0-15.3,0.2-22.4,0.3v-9.1c9.3-0.7,12.6-1.3,13.9-2.7c1-1.2,1.2-3,1.2-10.6V84.6c0-6.1-0.3-8.6-1.2-9.8
		c-1-1.3-4-2.2-13.9-2.8v-9c5.8,0.2,16.1,0.5,21.9,0.5c6,0,16.4-0.3,23.4-0.5v9c-10.6,0.7-13.1,1.7-14.1,3c-0.8,1.2-1,3.3-1,9.6V153
		c0,7.6,0.2,9.3,1,10.3c1.3,1.7,4.1,2.5,14.1,3.2v9.1C900.3,175.4,888.9,175.2,884.6,175.2z M999.8,177.7
		c-35.7,0-52.8-23.7-52.8-57.9c0-37,21.7-59.1,53.9-59.1c36.3,0,51.6,22.1,51.6,56.8C1052.6,158.4,1029.3,177.7,999.8,177.7z
		 M1000.3,72.6c-24.4,0-37.3,17.6-37.3,44.8c0,34.9,14.6,48.1,37.2,48.1c23.2,0,36.5-16.6,36.5-47
		C1036.6,86.2,1024,72.6,1000.3,72.6z M576.6,309.3c1.7,10.8,4.3,14.1,7,16.6c3.8,3.5,11.5,6,21.6,6c15.9,0,23.2-8.3,23.2-17.4
		c0-8.6-4.3-13.4-15.3-18.1l-20.7-8.8c-17.1-7.3-21.7-17.6-21.7-28.9c0-17.8,12.1-32,40.5-32c7.6,0,16.6,1.2,23.1,4.1
		c4.1,2,5.8,5.1,5.8,10.6c0,4.3-0.5,10.8-1.2,16.8h-8.1c-1.7-10.8-3.2-14.3-5.6-16.3c-3-2.5-9.1-3.5-17.3-3.5
		c-16.1,0-22.2,8.5-22.2,17.4c0,7.8,3.3,13.1,17.3,18.8l19.1,7.6c16.3,6.5,22.1,16.3,22.1,28.5c0,21.2-16.3,32.9-40.3,32.9
		c-9.8,0-20.1-2-25.9-4.8c-8.5-4.1-10-9-10-17.3c0-4,0.2-8,0.5-12.3H576.6z M706.8,341.2c-4.1,0-17.3,0.2-24.1,0.3v-9.1
		c11.3-0.7,13.3-1.5,14.6-3.2c1-1.2,1-4,1-10.5v-78.5c-21.9,0-24.2,0.5-27.1,2.5c-2.2,1.3-3.8,5-5,15.9h-7.8
		c-0.5-7-0.8-16.3-0.8-20.6c0-5.1,1.5-9,10-9h75.8c8.5,0,10.3,3.5,10.3,8.5c0,4.1-0.3,14.1-0.8,21.1h-8c-1-10.5-2.5-14.3-4.6-15.9
		c-2.7-2-5.3-2.5-27.1-2.5v78.2c0,6.6,0.3,9.1,1.2,10.6c1,1.7,3.3,2.5,14.8,3.3v9.1C722.5,341.3,710.8,341.2,706.8,341.2z
		 M767.5,341.2c-3.2,0-14.3,0.2-19.8,0.3v-9.1c6.3-0.3,10-1.3,11.6-2.7c2.2-1.7,3.2-4.1,6.6-13.4l31-82.3c2-5.1,4.8-7.6,9.6-7.6
		c4.3,0,6.8,2,8.8,7.3l31.9,85.3c2.5,7,4,9.5,6.3,11.3c1.3,1.2,5.1,2,10.5,2.2v9.1c-6.1-0.2-17.6-0.3-21.7-0.3
		c-3.7,0-18.4,0.2-24.9,0.3v-9.1c3.7-0.2,9.5-0.7,11.3-1.2c2.8-0.7,3.8-2,3.8-4c0-1.8-0.7-5.3-2.3-10l-5.8-15.4h-40.7l-5.5,14.6
		c-1.5,4.3-2.5,8-2.5,10.6c0,1.5,0.5,3,2.2,3.7c2.2,0.8,8.3,1.3,13.1,1.7v9.1C785.3,341.3,771,341.2,767.5,341.2z M820.7,290.7
		c-11.8-31.7-15.1-41-16.8-46.3c-2.3,6.6-5.3,15.1-16.8,46.3H820.7z M907.6,341.2c-4.1,0-17.3,0.2-24.1,0.3v-9.1
		c11.3-0.7,13.3-1.5,14.6-3.2c1-1.2,1-4,1-10.5v-78.5c-21.9,0-24.2,0.5-27.1,2.5c-2.2,1.3-3.8,5-5,15.9h-7.8
		c-0.5-7-0.8-16.3-0.8-20.6c0-5.1,1.5-9,10-9h75.8c8.5,0,10.3,3.5,10.3,8.5c0,4.1-0.3,14.1-0.8,21.1h-8c-1-10.5-2.5-14.3-4.6-15.9
		c-2.7-2-5.3-2.5-27.1-2.5v78.2c0,6.6,0.3,9.1,1.2,10.6c1,1.7,3.3,2.5,14.8,3.3v9.1C923.4,341.3,911.6,341.2,907.6,341.2z
		 M1051.7,336.5c-1,3-6.1,4.8-13.1,4.8h-72v-9c8.3-0.5,12.1-1,13.6-2.5c1.5-1.5,1.5-4.3,1.5-10.8v-68.5c0-4.6-0.2-8.6-1-9.8
		c-1.2-1.7-4.1-2.2-14.1-2.8v-8.8h71.4c8.3,0,10.5,3.3,10.5,8.1c0,4.5-0.8,14.4-1.3,19.3h-8.8c-1-9.1-2.3-12.3-4.1-13.6
		c-2.5-1.8-6.3-2.3-19.1-2.3h-18.3v37.3h11.6c8.8,0,11.8-0.5,13.6-2.8c1.5-1.8,2.7-5.3,3-10h8.3c-0.3,4.3-0.3,12.9-0.3,17.8
		c0,2.7,0,11.6,0.3,18.4h-7.8c-0.8-6.3-1.8-8.5-3.2-10.3c-1.8-2.5-6.3-2.5-14.3-2.5h-11.3v33.9c0,4.8,1.2,6.5,4.5,7
		c4.3,0.5,11.3,0.7,15.3,0.7c15.8,0,20.9-1.7,23.7-4.5c2.3-2.5,4.3-7.6,6.1-13.9h8.3C1054.6,321.1,1053.6,331.5,1051.7,336.5z
		 M584.9,507.1c-3.5,0-14.9,0.2-23.4,0.3v-13.6c10.1-0.5,12.4-1.3,13.6-3.3c0.8-1.7,1-5.6,1-13.8c0.2-16.6,0.5-42.2,0.5-51.1
		c0-7.8-0.3-12.1-1-13.4c-0.8-1.7-2.3-2.5-5.3-3c-2.2-0.5-5.5-0.7-9.1-0.8v-13.4c3.7,0.2,22.1,0.3,24.7,0.3c2.8,0,12.9,0,18.8-0.3
		c33.2,48.5,41.3,60.9,48.6,72.7c-0.7-16.6-0.7-35.7-1-42.2c-0.3-8.8-0.5-11.6-1.7-13.8c-1.2-1.8-3.8-3-13.9-3.3v-13.4
		c8.8,0.2,20.9,0.3,24.6,0.3c4.6,0,13.9-0.2,22.7-0.3v13.4c-8.8,0.5-10.8,1.2-12.8,2.8c-1.5,1.3-1.8,4-2,14.3
		c-0.2,9.1-0.2,21.9-0.2,41.7c0,6.1,0.2,22.9,0.2,29.9c0,8-3.2,12.1-12.3,12.1c-6.1,0-10.1-3.2-13.4-8.1c-36-54.1-43.1-64.9-51-77.2
		c0.2,22.7,0.5,37.8,0.7,53.1c0.2,10.1,0.5,12.8,1.7,14.3c1.5,1.7,3.7,2.2,13.6,2.7v13.6C599.7,507.3,589.7,507.1,584.9,507.1z
		 M783.7,501.3c-1.3,3.7-7.6,6-15.3,6h-79v-13.4c8.1-0.7,11.6-1.2,13.1-2.7c1.3-1.5,1.3-4.1,1.3-10.5V421c0-4.8,0-8.3-1-9.3
		c-1.5-1.8-4.1-2.5-13.4-3.3v-13.3h79.2c8.3,0,12.1,3.3,12.1,8.5c0,5.8-1.3,18.3-1.8,22.6h-14.3c-1.2-7.1-2.5-10.8-4.3-12.1
		c-1.7-1.2-4.6-1.8-11.9-1.8h-19.1v29.7h6.3c5.8,0,9.6-0.3,11.5-2.5c1.5-1.7,2.7-5.6,3.3-9.3H763c-0.2,4.1-0.2,15.1-0.2,19.7
		c0,2.8,0,13.3,0.2,20.2h-12.1c-0.8-4.8-1.7-8-3.2-9.6c-2.2-2.2-6-2.3-12.1-2.3h-6.3v24.7c0,4.5,1.2,6.6,4.5,7.1
		c4.5,0.7,9.5,0.7,13.3,0.7c12.9,0,18.3-1.8,21.1-4.5c2.5-2.2,4.1-8.6,5.6-12.6h13.1C786.7,481.7,785.7,495.7,783.7,501.3z
		 M950.2,411c-2.5,2-3.8,6.1-5.6,12.6l-19.9,73.9c-2.3,8.6-7,11.9-15.4,11.9c-8.6,0-12.6-2.8-14.9-10.8
		c-11.9-40.2-16.4-58.1-19.8-70c-2.8,12.1-7.5,29.4-19.3,68.9c-2.5,8.5-7.3,11.9-15.4,11.9c-8.3,0-12.8-2.8-14.8-10.8l-20.2-79
		c-1.2-4.6-2.8-8.1-5.5-9.5c-2-1-4.6-1.7-9.5-1.8v-13.4c10.5,0.2,24.4,0.3,28.9,0.3c5.1,0,24.9-0.2,28.2-0.3v13.4
		c-13.8,0.2-15.6,3.3-15.6,7.3c0,1.7,0.3,5,1.2,8.6c6.5,26.6,9,37.5,11.9,51.8c3.8-14.8,7.8-28.9,19.8-69.7
		c1.7-6,5.3-11.8,14.9-11.8c9.1,0,11.6,4,13.9,11.5c13.4,44.5,16.8,55.8,20.4,70.2c2.7-13.9,6-29,11.3-51.4c1.2-5.3,1.5-7.8,1.5-9.3
		c0-4.5-1.2-6.6-15.6-7.1v-13.4c8.1,0.2,22.9,0.3,27.9,0.3c3.7,0,15.9-0.2,22.1-0.3v13.4C954.7,408.7,951.7,409.9,950.2,411z
		 M982.5,469.3c1.7,9.6,4.1,13.6,6.6,16.3c3.8,3.8,11.8,6,20.9,6c12.1,0,17.9-5.1,17.9-12.1c0-6.8-3.3-10.1-10-12.4l-21.4-7.8
		c-22.1-8-25.7-20.2-25.7-31.9c0-19.6,13.8-34.7,44.8-34.7c9.1,0,20.6,1.2,27.5,5c4.5,2.7,6.1,6.1,6.1,13.3c0,4.3-0.7,13.1-1.3,19.1
		h-12.9c-1.3-9.3-3-13.6-5.6-16.1c-2.8-2.5-9.3-3.3-16.4-3.3c-12.3,0-16.6,5.3-16.6,11.6c0,5.3,2.3,9.5,10.5,12.4l21.1,7.6
		c17.4,6.3,26.1,15.6,26.1,31.5c0,24.2-18.9,35.8-45.5,35.8c-10,0-21.2-1.7-27.4-4.5c-10.3-4.5-12.3-10.1-12.3-19.1
		c0-6.8,0.5-12.6,1-16.8H982.5z M561.5,575.5c0-10.5,7.2-18.7,17.8-18.7c6.5,0,10.3,2.7,13.1,6.2l-3.7,3.4c-2.4-3.2-5.4-4.6-9.1-4.6
		c-7.6,0-12.3,5.8-12.3,13.7c0,7.9,4.7,13.8,12.3,13.8c3.7,0,6.7-1.5,9.1-4.6l3.7,3.4c-2.7,3.5-6.6,6.2-13.1,6.2
		C568.7,594.2,561.5,586.1,561.5,575.5z M598,575.5c0-10.3,6.8-18.7,17.6-18.7s17.6,8.3,17.6,18.7s-6.8,18.7-17.6,18.7
		S598,585.8,598,575.5z M627.5,575.5c0-7.2-4.2-13.7-11.8-13.7s-11.9,6.5-11.9,13.7c0,7.3,4.3,13.8,11.9,13.8
		S627.5,582.8,627.5,575.5z M666.3,593.3V570c0-6.3-3.2-8.3-8-8.3c-4.4,0-8.5,2.7-10.5,5.5v26h-5.5v-35.6h5.5v5.2
		c2.5-3,7.4-6,12.7-6c7.5,0,11.4,3.8,11.4,11.5v25H666.3z M707,593.3V570c0-6.3-3.2-8.3-8-8.3c-4.4,0-8.5,2.7-10.5,5.5v26h-5.5
		v-35.6h5.5v5.2c2.5-3,7.4-6,12.7-6c7.5,0,11.4,3.8,11.4,11.5v25H707z M721.5,575.5c0-10.3,7.4-18.7,17.6-18.7
		c10.8,0,17.1,8.4,17.1,19.1v1.4h-28.8c0.4,6.7,5.2,12.3,12.8,12.3c4.1,0,8.2-1.6,11-4.5l2.7,3.6c-3.5,3.5-8.3,5.5-14.2,5.5
		C729.1,594.2,721.5,586.6,721.5,575.5z M739,561.4c-7.6,0-11.4,6.4-11.7,11.9h23.4C750.6,568,747.1,561.4,739,561.4z M763,575.5
		c0-10.5,7.2-18.7,17.8-18.7c6.5,0,10.3,2.7,13.1,6.2l-3.7,3.4c-2.4-3.2-5.4-4.6-9.1-4.6c-7.6,0-12.3,5.8-12.3,13.7
		c0,7.9,4.7,13.8,12.3,13.8c3.7,0,6.7-1.5,9.1-4.6l3.7,3.4c-2.7,3.5-6.6,6.2-13.1,6.2C770.2,594.2,763,586.1,763,575.5z
		 M802.7,585.9v-23.3h-5.9v-4.9h5.9V548h5.5v9.7h7.2v4.9h-7.2v22.1c0,2.7,1.2,4.6,3.6,4.6c1.5,0,3-0.7,3.8-1.5l1.6,4.1
		c-1.4,1.3-3.4,2.3-6.6,2.3C805.4,594.2,802.7,591.2,802.7,585.9z M822.3,548.9c0-2.1,1.7-3.8,3.7-3.8c2.1,0,3.8,1.7,3.8,3.8
		c0,2.1-1.7,3.7-3.8,3.7C824,552.6,822.3,551,822.3,548.9z M823.3,593.3v-35.6h5.5v35.6H823.3z M863.9,593.3V570
		c0-6.3-3.2-8.3-8-8.3c-4.4,0-8.5,2.7-10.5,5.5v26h-5.5v-35.6h5.5v5.2c2.5-3,7.4-6,12.7-6c7.5,0,11.4,3.8,11.4,11.5v25H863.9z
		 M880.5,602.5l2.8-4.1c3,3.5,6.5,4.9,11.6,4.9c5.9,0,11.4-2.9,11.4-10.7v-5.1c-2.6,3.6-6.9,6.3-12,6.3c-9.3,0-15.9-6.9-15.9-18.4
		c0-11.4,6.5-18.5,15.9-18.5c4.8,0,9.1,2.4,12,6.3v-5.4h5.5v34.6c0,11.8-8.3,15.5-17,15.5C888.8,607.8,884.7,606.6,880.5,602.5z
		 M906.3,583.1v-15.6c-1.9-3.1-6.2-5.8-10.6-5.8c-7.2,0-11.4,5.7-11.4,13.6c0,7.8,4.3,13.6,11.4,13.6
		C900.1,588.9,904.4,586.2,906.3,583.1z M946,602.3c0.8,0.4,2.1,0.6,3,0.6c2.4,0,4.1-0.8,5.3-3.8l2.4-5.4l-14.9-36h6l11.9,29.2
		l11.8-29.2h6l-17.8,42.9c-2.1,5.2-5.8,7.2-10.5,7.2c-1.2,0-3-0.2-4.1-0.5L946,602.3z M981.2,575.5c0-10.3,6.8-18.7,17.6-18.7
		c10.8,0,17.6,8.3,17.6,18.7s-6.8,18.7-17.6,18.7C988,594.2,981.2,585.8,981.2,575.5z M1010.6,575.5c0-7.2-4.2-13.7-11.8-13.7
		c-7.6,0-11.9,6.5-11.9,13.7c0,7.3,4.3,13.8,11.9,13.8C1006.4,589.3,1010.6,582.8,1010.6,575.5z M1049.5,593.3v-5
		c-2.7,3.1-7.4,5.9-12.7,5.9c-7.4,0-11.4-3.6-11.4-11.4v-25.2h5.5v23.5c0,6.3,3.2,8.1,8,8.1c4.4,0,8.5-2.5,10.5-5.4v-26.2h5.5v35.6
		H1049.5z"/>
</g>
</svg>
