<?xml version="1.0" encoding="utf-8"?>
<!-- Generator: Adobe Illustrator 22.0.1, SVG Export Plug-In . SVG Version: 6.00 Build 0)  -->
<svg version="1.1" id="Layer_1" xmlns="http://www.w3.org/2000/svg" xmlns:xlink="http://www.w3.org/1999/xlink" x="0px" y="0px"
	 viewBox="0 0 1055 655" style="enable-background:new 0 0 1055 655;" xml:space="preserve">
<style type="text/css">
	.st0{fill:#BB0000;}
	.st1{fill:#666666;}
</style>
<path class="st0" d="M211.1,454.9L83.4,352.8l145.3-25.5l11.4,107.9C228.6,438.5,218.4,445.5,211.1,454.9z M53,357.2L0,364v49.4
	l176.2,42.9L53,357.2z M458.2,271.4l-42.6-32.1l-175.8-10.2l7.8,73.6L458.2,271.4z M0,122.9v18l184.4-60.1L50.8,72.1L0,122.9z
	 M296.4,66.8l160.1,10.4l-47.2-47.2L296.4,66.8z M502.2,265v-20.7l-48.2-2.8l34.7,25.5L502.2,265z M27.9,339.4L0,321.3V343
	L27.9,339.4z M423.3,218.4l78.9,4.6V122.9l-22.9-22.9L245.6,84.8L423.3,218.4z M237.5,207.7l147.3,8.5l-159-119.7L237.5,207.7z
	 M239,63l153.3-50l-13-13H215.6l6.5,61.8L239,63z M0,215.2v81.7l58.3,37.9l168.1-28.9l-8.2-78L0,215.2z M0,163.2v30.6l216,12.5
	L204.4,96.6L0,163.2z M461.8,291l-212,32.9l11.5,108.8c1.5,0.1,2.9,0.2,4.4,0.5c12.8,2.1,23.8,8.2,32.2,16.8L461.8,291z
	 M502.2,419.5V286.6l-8.9,1.5L309.8,468.2c0.1,0.1,0.1,0.3,0.2,0.5L502.2,419.5z M502.2,515.8l-181.3-12.4l147.9,62.3l33.4-33.4
	V515.8z M70.8,52l129.7,8.4L194.2,0h-71.4L70.8,52z M417.2,617.1l35.2-35.2l-137.1-57.8L417.2,617.1z M294.2,533.8
	c-6.1,5.2-13.3,9.2-21.1,11.5L284.7,655h94.6l22.8-22.8L294.2,533.8z M502.2,441.6l-163.8,41.9l163.8,11V441.6z M199.5,483.9
	L0,435.3v96.9l19.1,19.1l183.3-41.9C199.5,501.4,198.5,492.8,199.5,483.9z M145.6,544.2L36.9,569.1L62,594.2L145.6,544.2z
	 M256.2,587.5L245.4,655h17.9L256.2,587.5z M199.4,536.8l-121.8,73l45.2,45.2L199.4,536.8z M241.3,545.6c-6.2-1.7-11.9-4.4-17-7.9
	L148.2,655h75.6L241.3,545.6z"/>
<path class="st1" d="M618.8,218.1c-35.7,0-52.8-23.7-52.8-57.9c0-37,21.7-59.1,53.9-59.1c36.3,0,51.6,22.1,51.6,56.8
	C671.6,198.8,648.3,218.1,618.8,218.1z M619.3,113c-24.4,0-37.3,17.6-37.3,44.8c0,34.9,14.6,48.1,37.2,48.1
	c23.2,0,36.5-16.6,36.5-47C655.6,126.6,643,113,619.3,113z M733.3,215.6c-3.8,0-15.1,0.2-22.2,0.3v-9.1c9.3-0.7,12.6-1.2,13.9-2.7
	c1-1.3,1.2-3,1.2-10.6V125c0-6.1-0.3-8.6-1.2-9.8c-1-1.3-4-2.2-13.9-2.8v-9c7,0.2,17.9,0.5,21.7,0.5c4.1,0,16.4-0.3,23.6-0.5v9
	c-10.6,0.7-13.1,1.7-14.1,3c-0.8,1.2-1,3.3-1,9.6v26.4h53.6v-26.3c0-6.1-0.3-8.8-1.3-10c-1.2-1.3-4.1-2.2-13.9-2.8v-9
	c7,0.2,18.3,0.5,22.1,0.5c4.1,0,16.1-0.3,23.4-0.5v9c-10.8,0.7-13.1,1.7-14.3,3c-0.8,1.2-1,3.3-1,9.6v68.5c0,7.6,0.2,9.5,1,10.5
	c1.3,1.5,3.5,2.3,14.3,3v9.1c-7.3-0.2-18.6-0.3-22.7-0.3c-3.8,0-15.8,0.2-22.7,0.3v-9.1c9.3-0.7,12.6-1.2,13.9-2.7
	c1.2-1.3,1.3-3,1.3-10.6v-30.7h-53.6v30.5c0,7.6,0.2,9.5,1,10.5c1.2,1.5,3.7,2.3,14.1,3v9.1C749.3,215.8,737.7,215.6,733.3,215.6z
	 M884.6,215.6c-3.8,0-15.3,0.2-22.4,0.3v-9.1c9.3-0.7,12.6-1.3,13.9-2.7c1-1.2,1.2-3,1.2-10.6V125c0-6.1-0.3-8.6-1.2-9.8
	c-1-1.3-4-2.2-13.9-2.8v-9c5.8,0.2,16.1,0.5,21.9,0.5c6,0,16.4-0.3,23.4-0.5v9c-10.6,0.7-13.1,1.7-14.1,3c-0.8,1.2-1,3.3-1,9.6v68.4
	c0,7.6,0.2,9.3,1,10.3c1.3,1.7,4.1,2.5,14.1,3.2v9.1C900.3,215.8,888.9,215.6,884.6,215.6z M999.8,218.1
	c-35.7,0-52.8-23.7-52.8-57.9c0-37,21.7-59.1,53.9-59.1c36.3,0,51.6,22.1,51.6,56.8C1052.6,198.8,1029.3,218.1,999.8,218.1z
	 M1000.3,113c-24.4,0-37.3,17.6-37.3,44.8c0,34.9,14.6,48.1,37.2,48.1c23.2,0,36.5-16.6,36.5-47C1036.6,126.6,1024,113,1000.3,113z
	 M576.6,349.6c1.7,10.8,4.3,14.1,7,16.6c3.8,3.5,11.5,6,21.6,6c15.9,0,23.2-8.3,23.2-17.4c0-8.6-4.3-13.4-15.3-18.1l-20.7-8.8
	c-17.1-7.3-21.7-17.6-21.7-28.9c0-17.8,12.1-32,40.5-32c7.6,0,16.6,1.2,23.1,4.1c4.1,2,5.8,5.1,5.8,10.6c0,4.3-0.5,10.8-1.2,16.8
	h-8.1c-1.7-10.8-3.2-14.3-5.6-16.3c-3-2.5-9.1-3.5-17.3-3.5c-16.1,0-22.2,8.5-22.2,17.4c0,7.8,3.3,13.1,17.3,18.8l19.1,7.6
	c16.3,6.5,22.1,16.3,22.1,28.5c0,21.2-16.3,32.9-40.3,32.9c-9.8,0-20.1-2-25.9-4.8c-8.5-4.1-10-9-10-17.3c0-4,0.2-8,0.5-12.3
	L576.6,349.6L576.6,349.6z M706.8,381.6c-4.1,0-17.3,0.2-24.1,0.3v-9.1c11.3-0.7,13.3-1.5,14.6-3.2c1-1.2,1-4,1-10.5v-78.5
	c-21.9,0-24.2,0.5-27.1,2.5c-2.2,1.3-3.8,5-5,15.9h-7.8c-0.5-7-0.8-16.3-0.8-20.6c0-5.1,1.5-9,10-9h75.8c8.5,0,10.3,3.5,10.3,8.5
	c0,4.1-0.3,14.1-0.8,21.1h-8c-1-10.5-2.5-14.3-4.6-15.9c-2.7-2-5.3-2.5-27.1-2.5v78.2c0,6.6,0.3,9.1,1.2,10.6
	c1,1.7,3.3,2.5,14.8,3.3v9.1C722.5,381.6,710.8,381.6,706.8,381.6z M767.5,381.6c-3.2,0-14.3,0.2-19.8,0.3v-9.1
	c6.3-0.3,10-1.3,11.6-2.7c2.2-1.7,3.2-4.1,6.6-13.4l31-82.3c2-5.1,4.8-7.6,9.6-7.6c4.3,0,6.8,2,8.8,7.3l31.9,85.3
	c2.5,7,4,9.5,6.3,11.3c1.3,1.2,5.1,2,10.5,2.2v9.1c-6.1-0.2-17.6-0.3-21.7-0.3c-3.7,0-18.4,0.2-24.9,0.3v-9.1
	c3.7-0.2,9.5-0.7,11.3-1.2c2.8-0.7,3.8-2,3.8-4c0-1.8-0.7-5.3-2.3-10l-5.8-15.4h-40.7l-5.5,14.6c-1.5,4.3-2.5,8-2.5,10.6
	c0,1.5,0.5,3,2.2,3.7c2.2,0.8,8.3,1.3,13.1,1.7v9.1C785.3,381.6,771,381.6,767.5,381.6z M820.7,331.1c-11.8-31.7-15.1-41-16.8-46.3
	c-2.3,6.6-5.3,15.1-16.8,46.3H820.7z M907.6,381.6c-4.1,0-17.3,0.2-24.1,0.3v-9.1c11.3-0.7,13.3-1.5,14.6-3.2c1-1.2,1-4,1-10.5
	v-78.5c-21.9,0-24.2,0.5-27.1,2.5c-2.2,1.3-3.8,5-5,15.9h-7.8c-0.5-7-0.8-16.3-0.8-20.6c0-5.1,1.5-9,10-9h75.8
	c8.5,0,10.3,3.5,10.3,8.5c0,4.1-0.3,14.1-0.8,21.1h-8c-1-10.5-2.5-14.3-4.6-15.9c-2.7-2-5.3-2.5-27.1-2.5v78.2
	c0,6.6,0.3,9.1,1.2,10.6c1,1.7,3.3,2.5,14.8,3.3v9.1C923.4,381.6,911.6,381.6,907.6,381.6z M1051.7,376.9c-1,3-6.1,4.8-13.1,4.8h-72
	v-9c8.3-0.5,12.1-1,13.6-2.5s1.5-4.3,1.5-10.8v-68.5c0-4.6-0.2-8.6-1-9.8c-1.2-1.7-4.1-2.2-14.1-2.8v-8.8h71.4
	c8.3,0,10.5,3.3,10.5,8.1c0,4.5-0.8,14.4-1.3,19.3h-8.8c-1-9.1-2.3-12.3-4.1-13.6c-2.5-1.8-6.3-2.3-19.1-2.3h-18.3v37.3h11.6
	c8.8,0,11.8-0.5,13.6-2.8c1.5-1.8,2.7-5.3,3-10h8.3c-0.3,4.3-0.3,12.9-0.3,17.8c0,2.7,0,11.6,0.3,18.4h-7.8
	c-0.8-6.3-1.8-8.5-3.2-10.3c-1.8-2.5-6.3-2.5-14.3-2.5h-11.3v33.9c0,4.8,1.2,6.5,4.5,7c4.3,0.5,11.3,0.7,15.3,0.7
	c15.8,0,20.9-1.7,23.7-4.5c2.3-2.5,4.3-7.6,6.1-13.9h8.3C1054.6,361.5,1053.6,371.9,1051.7,376.9z M584.9,547.5
	c-3.5,0-14.9,0.2-23.4,0.3v-13.6c10.1-0.5,12.4-1.3,13.6-3.3c0.8-1.7,1-5.6,1-13.8c0.2-16.6,0.5-42.2,0.5-51.1
	c0-7.8-0.3-12.1-1-13.4c-0.8-1.7-2.3-2.5-5.3-3c-2.2-0.5-5.5-0.7-9.1-0.8v-13.4c3.7,0.2,22.1,0.3,24.7,0.3c2.8,0,12.9,0,18.8-0.3
	c33.2,48.5,41.3,60.9,48.6,72.7c-0.7-16.6-0.7-35.7-1-42.2c-0.3-8.8-0.5-11.6-1.7-13.8c-1.2-1.8-3.8-3-13.9-3.3v-13.4
	c8.8,0.2,20.9,0.3,24.6,0.3c4.6,0,13.9-0.2,22.7-0.3v13.4c-8.8,0.5-10.8,1.2-12.8,2.8c-1.5,1.3-1.8,4-2,14.3
	c-0.2,9.1-0.2,21.9-0.2,41.7c0,6.1,0.2,22.9,0.2,29.9c0,8-3.2,12.1-12.3,12.1c-6.1,0-10.1-3.2-13.4-8.1c-36-54.1-43.1-64.9-51-77.2
	c0.2,22.7,0.5,37.8,0.7,53.1c0.2,10.1,0.5,12.8,1.7,14.3c1.5,1.7,3.7,2.2,13.6,2.7V548C599.7,547.7,589.7,547.5,584.9,547.5z
	 M783.7,541.7c-1.3,3.7-7.6,6-15.3,6h-79v-13.4c8.1-0.7,11.6-1.2,13.1-2.7c1.3-1.5,1.3-4.1,1.3-10.5v-59.7c0-4.8,0-8.3-1-9.3
	c-1.5-1.8-4.1-2.5-13.4-3.3v-13.3h79.2c8.3,0,12.1,3.3,12.1,8.5c0,5.8-1.3,18.3-1.8,22.6h-14.3c-1.2-7.1-2.5-10.8-4.3-12.1
	c-1.7-1.2-4.6-1.8-11.9-1.8h-19.1v29.7h6.3c5.8,0,9.6-0.3,11.5-2.5c1.5-1.7,2.7-5.6,3.3-9.3H763c-0.2,4.1-0.2,15.1-0.2,19.7
	c0,2.8,0,13.3,0.2,20.2h-12.1c-0.8-4.8-1.7-8-3.2-9.6c-2.2-2.2-6-2.3-12.1-2.3h-6.3v24.7c0,4.5,1.2,6.6,4.5,7.1
	c4.5,0.7,9.5,0.7,13.3,0.7c12.9,0,18.3-1.8,21.1-4.5c2.5-2.2,4.1-8.6,5.6-12.6h13.1C786.7,522.1,785.7,536.1,783.7,541.7z
	 M950.2,451.4c-2.5,2-3.8,6.1-5.6,12.6l-19.9,73.9c-2.3,8.6-7,11.9-15.4,11.9c-8.6,0-12.6-2.8-14.9-10.8
	c-11.9-40.2-16.4-58.1-19.8-70c-2.8,12.1-7.5,29.4-19.3,68.9c-2.5,8.5-7.3,11.9-15.4,11.9c-8.3,0-12.8-2.8-14.8-10.8l-20.2-79
	c-1.2-4.6-2.8-8.1-5.5-9.5c-2-1-4.6-1.7-9.5-1.8v-13.4c10.5,0.2,24.4,0.3,28.9,0.3c5.1,0,24.9-0.2,28.2-0.3v13.4
	c-13.8,0.2-15.6,3.3-15.6,7.3c0,1.7,0.3,5,1.2,8.6c6.5,26.6,9,37.5,11.9,51.8c3.8-14.8,7.8-28.9,19.8-69.7c1.7-6,5.3-11.8,14.9-11.8
	c9.1,0,11.6,4,13.9,11.5c13.4,44.5,16.8,55.8,20.4,70.2c2.7-13.9,6-29,11.3-51.4c1.2-5.3,1.5-7.8,1.5-9.3c0-4.5-1.2-6.6-15.6-7.1
	v-13.4c8.1,0.2,22.9,0.3,27.9,0.3c3.7,0,15.9-0.2,22.1-0.3v13.4C954.7,449.1,951.7,450.2,950.2,451.4z M982.5,509.6
	c1.7,9.6,4.1,13.6,6.6,16.3c3.8,3.8,11.8,6,20.9,6c12.1,0,17.9-5.1,17.9-12.1c0-6.8-3.3-10.1-10-12.4l-21.4-7.8
	c-22.1-8-25.7-20.2-25.7-31.9c0-19.6,13.8-34.7,44.8-34.7c9.1,0,20.6,1.2,27.5,5c4.5,2.7,6.1,6.1,6.1,13.3c0,4.3-0.7,13.1-1.3,19.1
	H1035c-1.3-9.3-3-13.6-5.6-16.1c-2.8-2.5-9.3-3.3-16.4-3.3c-12.3,0-16.6,5.3-16.6,11.6c0,5.3,2.3,9.5,10.5,12.4l21.1,7.6
	c17.4,6.3,26.1,15.6,26.1,31.5c0,24.2-18.9,35.8-45.5,35.8c-10,0-21.2-1.7-27.4-4.5c-10.3-4.5-12.3-10.1-12.3-19.1
	c0-6.8,0.5-12.6,1-16.8h12.6V509.6z"/>
</svg>
