<?xml version="1.0" encoding="utf-8"?>
<!-- Generator: Adobe Illustrator 18.1.1, SVG Export Plug-In . SVG Version: 6.00 Build 0)  -->
<svg version="1.1" id="Layer_1" xmlns="http://www.w3.org/2000/svg" xmlns:xlink="http://www.w3.org/1999/xlink" x="0px" y="0px"
	 viewBox="0 0 612 1224" enable-background="new 0 0 612 1224" xml:space="preserve">
<g display="none">
	<rect x="251.8" y="-1.8" display="inline" fill="#FF0000" width="108.5" height="108.5"/>
	<rect x="251.8" y="685.4" display="inline" fill="#FF0000" width="108.5" height="108.5"/>
	<rect x="527.8" y="345.3" display="inline" fill="#FF0000" width="108.5" height="108.5"/>
	<rect x="-24.3" y="345.3" display="inline" fill="#FF0000" width="108.5" height="108.5"/>
</g>
<path fill="#BB0000" d="M257.6,550.1L103.1,426.4l175.8-30.9L292.7,526C278.8,530.2,266.5,538.7,257.6,550.1z M556.6,328.2
	l-51.5-38.8L292.4,277l9.4,89.1L556.6,328.2z M66.3,431.9L2.2,440v59.7l213.1,52L66.3,431.9z M609.8,320.5v-25l-58.3-3.4l42,30.8
	L609.8,320.5z M360.8,80.6l193.7,12.6l-57.1-57.1L360.8,80.6z M514.3,264.1l95.5,5.5V148.5l-27.7-27.7l-282.7-18.4L514.3,264.1z
	 M291.4,76.1l185.5-60.4L461.1,0H263l7.9,74.8L291.4,76.1z M2.2,148.5v21.8l223.1-72.7L63.6,87.1L2.2,148.5z M289.6,251.1
	l178.3,10.3L275.4,116.6L289.6,251.1z M2.2,197.3v37l261.3,15.2l-14-132.7L2.2,197.3z M36,410.3L2.2,388.5v26.3L36,410.3z
	 M2.2,260.2V359l70.5,45.8l203.4-34.9l-10-94.4L2.2,260.2z M609.8,533.9l-198.1,50.6l198.1,13.5V533.9z M609.8,507.3V346.5
	l-10.7,1.8L377,566.1c0.1,0.2,0.2,0.4,0.2,0.5L609.8,507.3z M609.8,623.5l-219.4-14.9l178.9,75.3l40.5-40.4L609.8,623.5L609.8,623.5
	z M561,352l-256.5,39.8l13.9,131.6c1.7,0.1,3.6,0.3,5.3,0.5c15.4,2.5,28.8,9.9,38.9,20.3L561,352z M358.2,645.3
	c-7.4,6.3-16.1,11.1-25.5,13.9l14,132.8h114.5l27.6-27.6L358.2,645.3z M507,746.2l42.6-42.6l-165.9-69.9L507,746.2z M294.2,659.7
	c-7.5-2.1-14.4-5.3-20.6-9.5L181.4,792h91.5L294.2,659.7z M243.6,585.1L2.2,526.3v117.2l23.1,23.1l221.8-50.7
	C243.6,606.3,242.4,595.8,243.6,585.1z M178.3,658L46.8,688.1l30.5,30.4L178.3,658z M312.2,710.3L299.1,792h21.7L312.2,710.3z
	 M243.5,649.1L96.1,737.3l54.7,54.7L243.5,649.1z M87.9,62.9l157,10.2L237.1,0h-86.3L87.9,62.9z"/>
<path fill="#666666" d="M154.4,946.5c-28.6,0-42.3-19-42.3-46.4c0-29.7,17.4-47.4,43.2-47.4c29.1,0,41.4,17.7,41.4,45.5
	C196.7,931.1,178,946.5,154.4,946.5z M154.8,862.3c-19.6,0-29.9,14.1-29.9,35.9c0,27.9,11.7,38.6,29.8,38.6
	c18.6,0,29.3-13.3,29.3-37.7C183.9,873.2,173.8,862.3,154.8,862.3z M246.2,944.5c-3.1,0-12.1,0.1-17.8,0.3v-7.3
	c7.5-0.5,10.1-0.9,11.2-2.1c0.8-1.1,0.9-2.4,0.9-8.5v-55c0-4.9-0.3-6.9-0.9-7.9c-0.8-1.1-3.2-1.7-11.2-2.3v-7.2
	c5.6,0.1,14.4,0.4,17.4,0.4c3.3,0,13.2-0.3,18.9-0.4v7.2c-8.5,0.5-10.5,1.3-11.3,2.4c-0.7,0.9-0.8,2.7-0.8,7.7V893h43v-21
	c0-4.9-0.3-7.1-1.1-8c-0.9-1.1-3.3-1.7-11.2-2.3v-7.2c5.6,0.1,14.6,0.4,17.7,0.4c3.3,0,12.9-0.3,18.8-0.4v7.2
	c-8.6,0.5-10.5,1.3-11.4,2.4c-0.7,0.9-0.8,2.7-0.8,7.7v54.8c0,6.1,0.1,7.6,0.8,8.4c1.1,1.2,2.8,1.9,11.4,2.4v7.3
	c-5.9-0.1-14.9-0.3-18.2-0.3c-3.1,0-12.6,0.1-18.2,0.3v-7.3c7.4-0.5,10.1-0.9,11.2-2.1c0.9-1.1,1.1-2.4,1.1-8.5v-24.6h-43v24.5
	c0,6.1,0.1,7.6,0.8,8.4c0.9,1.2,2.9,1.9,11.3,2.4v7.3C259,944.6,249.6,944.5,246.2,944.5z M367.4,944.5c-3.1,0-12.2,0.1-18,0.3v-7.3
	c7.5-0.5,10.1-1.1,11.2-2.1c0.8-0.9,0.9-2.4,0.9-8.5v-55c0-4.9-0.3-6.9-0.9-7.9c-0.8-1.1-3.2-1.7-11.2-2.3v-7.2
	c4.7,0.1,12.9,0.4,17.6,0.4c4.8,0,13.2-0.3,18.8-0.4v7.2c-8.5,0.5-10.5,1.3-11.3,2.4c-0.7,0.9-0.8,2.7-0.8,7.7v54.8
	c0,6.1,0.1,7.5,0.8,8.3c1.1,1.3,3.3,2,11.3,2.5v7.3C380.1,944.6,370.9,944.5,367.4,944.5z M459.8,946.5c-28.6,0-42.3-19-42.3-46.4
	c0-29.7,17.4-47.4,43.2-47.4c29.1,0,41.4,17.7,41.4,45.5C502.1,931.1,483.4,946.5,459.8,946.5z M460.2,862.3
	c-19.6,0-29.9,14.1-29.9,35.9c0,27.9,11.7,38.6,29.8,38.6c18.6,0,29.3-13.3,29.3-37.7C489.3,873.2,479.2,862.3,460.2,862.3z
	 M120.6,1052c1.3,8.7,3.5,11.3,5.6,13.3c3.1,2.8,9.2,4.8,17.3,4.8c12.8,0,18.6-6.7,18.6-14c0-6.9-3.5-10.8-12.2-14.5l-16.6-7.1
	c-13.7-5.9-17.4-14.1-17.4-23.2c0-14.2,9.7-25.7,32.5-25.7c6.1,0,13.3,0.9,18.5,3.3c3.3,1.6,4.7,4.1,4.7,8.5c0,3.5-0.4,8.7-0.9,13.4
	h-6.5c-1.3-8.7-2.5-11.4-4.5-13c-2.4-2-7.3-2.8-13.8-2.8c-12.9,0-17.8,6.8-17.8,14c0,6.3,2.7,10.5,13.8,15l15.3,6.1
	c13,5.2,17.7,13,17.7,22.9c0,17-13,26.4-32.3,26.4c-7.8,0-16.1-1.6-20.8-3.9c-6.8-3.3-8-7.2-8-13.8c0-3.2,0.1-6.4,0.4-9.8H120.6z
	 M224.9,1077.6c-3.3,0-13.8,0.1-19.3,0.3v-7.3c9-0.5,10.6-1.2,11.7-2.5c0.8-0.9,0.8-3.2,0.8-8.4v-63c-17.6,0-19.4,0.4-21.7,2
	c-1.7,1.1-3.1,4-4,12.8h-6.3c-0.4-5.6-0.7-13-0.7-16.5c0-4.1,1.2-7.2,8-7.2h60.8c6.8,0,8.2,2.8,8.2,6.8c0,3.3-0.3,11.3-0.7,16.9
	h-6.4c-0.8-8.4-2-11.4-3.7-12.8c-2.1-1.6-4.3-2-21.7-2v62.7c0,5.3,0.3,7.3,0.9,8.5c0.8,1.3,2.7,2,11.8,2.7v7.3
	C237.5,1077.7,228.1,1077.6,224.9,1077.6z M273.6,1077.6c-2.5,0-11.4,0.1-15.8,0.3v-7.3c5.1-0.3,8-1.1,9.3-2.1
	c1.7-1.3,2.5-3.3,5.3-10.8l24.9-66c1.6-4.1,3.9-6.1,7.7-6.1c3.5,0,5.5,1.6,7.1,5.9l25.5,68.4c2,5.6,3.2,7.6,5.1,9.1
	c1.1,0.9,4.1,1.6,8.4,1.7v7.3c-4.9-0.1-14.1-0.3-17.4-0.3c-2.9,0-14.8,0.1-20,0.3v-7.3c2.9-0.1,7.6-0.5,9-0.9
	c2.3-0.5,3.1-1.6,3.1-3.2c0-1.5-0.5-4.3-1.9-8l-4.7-12.4h-32.6l-4.4,11.7c-1.2,3.5-2,6.4-2,8.5c0,1.2,0.4,2.4,1.7,2.9
	c1.7,0.7,6.7,1.1,10.5,1.3v7.3C287.8,1077.7,276.4,1077.6,273.6,1077.6z M316.2,1037.1c-9.4-25.4-12.1-32.9-13.4-37.1
	c-1.9,5.3-4.3,12.1-13.4,37.1H316.2z M385.9,1077.6c-3.3,0-13.8,0.1-19.3,0.3v-7.3c9-0.5,10.6-1.2,11.7-2.5c0.8-0.9,0.8-3.2,0.8-8.4
	v-63c-17.6,0-19.4,0.4-21.7,2c-1.7,1.1-3.1,4-4,12.8h-6.3c-0.4-5.6-0.7-13-0.7-16.5c0-4.1,1.2-7.2,8-7.2h60.8c6.8,0,8.2,2.8,8.2,6.8
	c0,3.3-0.3,11.3-0.7,16.9h-6.4c-0.8-8.4-2-11.4-3.7-12.8c-2.1-1.6-4.3-2-21.7-2v62.7c0,5.3,0.3,7.3,0.9,8.5c0.8,1.3,2.7,2,11.8,2.7
	v7.3C398.5,1077.7,389.1,1077.6,385.9,1077.6z M501.4,1073.9c-0.8,2.4-4.9,3.9-10.5,3.9h-57.7v-7.2c6.7-0.4,9.7-0.8,10.9-2
	c1.2-1.2,1.2-3.5,1.2-8.7v-55c0-3.7-0.1-6.9-0.8-7.9c-0.9-1.3-3.3-1.7-11.3-2.3v-7.1h57.2c6.7,0,8.4,2.7,8.4,6.5
	c0,3.6-0.7,11.6-1.1,15.4h-7.1c-0.8-7.3-1.9-9.8-3.3-10.9c-2-1.5-5.1-1.9-15.3-1.9h-14.6v29.9h9.3c7.1,0,9.4-0.4,10.9-2.3
	c1.2-1.5,2.1-4.3,2.4-8h6.7c-0.3,3.5-0.3,10.4-0.3,14.2c0,2.1,0,9.3,0.3,14.8h-6.3c-0.7-5.1-1.5-6.8-2.5-8.3c-1.5-2-5.1-2-11.4-2h-9
	v27.1c0,3.9,0.9,5.2,3.6,5.6c3.5,0.4,9,0.5,12.2,0.5c12.6,0,16.8-1.3,19-3.6c1.9-2,3.5-6.1,4.9-11.2h6.7
	C503.7,1061.5,502.9,1069.9,501.4,1073.9z M127.2,1210.7c-2.8,0-12,0.1-18.8,0.3V1200c8.1-0.4,10-1.1,10.9-2.7
	c0.7-1.3,0.8-4.5,0.8-11c0.1-13.3,0.4-33.8,0.4-41c0-6.3-0.3-9.7-0.8-10.8c-0.7-1.3-1.9-2-4.3-2.4c-1.7-0.4-4.4-0.5-7.3-0.7v-10.8
	c2.9,0.1,17.7,0.3,19.8,0.3c2.3,0,10.4,0,15-0.3c26.6,38.9,33.1,48.8,39,58.3c-0.5-13.3-0.5-28.6-0.8-33.8c-0.3-7.1-0.4-9.3-1.3-11
	c-0.9-1.5-3.1-2.4-11.2-2.7v-10.8c7.1,0.1,16.8,0.3,19.7,0.3c3.7,0,11.2-0.1,18.2-0.3v10.8c-7.1,0.4-8.6,0.9-10.2,2.3
	c-1.2,1.1-1.5,3.2-1.6,11.4c-0.1,7.3-0.1,17.6-0.1,33.4c0,4.9,0.1,18.4,0.1,24c0,6.4-2.5,9.7-9.8,9.7c-4.9,0-8.1-2.5-10.8-6.5
	c-28.9-43.4-34.6-52-40.8-61.9c0.1,18.2,0.4,30.3,0.5,42.6c0.1,8.1,0.4,10.2,1.3,11.4c1.2,1.3,2.9,1.7,10.9,2.1v10.9
	C139.1,1210.8,131.1,1210.7,127.2,1210.7z M286.6,1206c-1.1,2.9-6.1,4.8-12.2,4.8H211V1200c6.5-0.5,9.3-0.9,10.5-2.1
	c1.1-1.2,1.1-3.3,1.1-8.4v-47.9c0-3.9,0-6.7-0.8-7.5c-1.2-1.5-3.3-2-10.8-2.7v-10.6h63.5c6.7,0,9.7,2.7,9.7,6.8
	c0,4.7-1.1,14.6-1.5,18.1h-11.4c-0.9-5.7-2-8.7-3.5-9.7c-1.3-0.9-3.7-1.5-9.6-1.5h-15.3v23.8h5.1c4.7,0,7.7-0.3,9.2-2
	c1.2-1.3,2.1-4.5,2.7-7.5H270c-0.1,3.3-0.1,12.1-0.1,15.8c0,2.3,0,10.6,0.1,16.2h-9.7c-0.7-3.9-1.3-6.4-2.5-7.7
	c-1.7-1.7-4.8-1.9-9.7-1.9h-5.1v19.8c0,3.6,0.9,5.3,3.6,5.7c3.6,0.5,7.6,0.5,10.6,0.5c10.4,0,14.6-1.5,16.9-3.6
	c2-1.7,3.3-6.9,4.5-10.1h10.5C289,1190.3,288.2,1201.5,286.6,1206z M420,1133.6c-2,1.6-3.1,4.9-4.5,10.1l-16,59.2
	c-1.9,6.9-5.6,9.6-12.4,9.6c-6.9,0-10.1-2.3-12-8.7c-9.6-32.2-13.2-46.6-15.8-56.2c-2.3,9.7-6,23.6-15.4,55.2
	c-2,6.8-5.9,9.6-12.4,9.6c-6.7,0-10.2-2.3-11.8-8.7l-16.2-63.3c-0.9-3.7-2.3-6.5-4.4-7.6c-1.6-0.8-3.7-1.3-7.6-1.5v-10.8
	c8.4,0.1,19.6,0.3,23.1,0.3c4.1,0,20-0.1,22.6-0.3v10.8c-11,0.1-12.5,2.7-12.5,5.9c0,1.3,0.3,4,0.9,6.9c5.2,21.3,7.2,30.1,9.6,41.5
	c3.1-11.8,6.3-23.2,15.8-55.9c1.3-4.8,4.3-9.4,12-9.4c7.3,0,9.3,3.2,11.2,9.2c10.8,35.7,13.4,44.7,16.4,56.3
	c2.1-11.2,4.8-23.3,9-41.3c0.9-4.3,1.2-6.3,1.2-7.5c0-3.6-0.9-5.3-12.5-5.7v-10.8c6.5,0.1,18.4,0.3,22.4,0.3
	c2.9,0,12.8-0.1,17.7-0.3v10.8C423.6,1131.8,421.2,1132.7,420,1133.6z M445.9,1180.3c1.3,7.7,3.3,10.9,5.3,13
	c3.1,3.1,9.4,4.8,16.8,4.8c9.7,0,14.4-4.1,14.4-9.7c0-5.5-2.7-8.1-8-10l-17.2-6.3c-17.7-6.4-20.6-16.2-20.6-25.6
	c0-15.7,11-27.8,35.9-27.8c7.3,0,16.5,0.9,22.1,4c3.6,2.1,4.9,4.9,4.9,10.6c0,3.5-0.5,10.5-1.1,15.3h-10.4
	c-1.1-7.5-2.4-10.9-4.5-12.9c-2.3-2-7.5-2.7-13.2-2.7c-9.8,0-13.3,4.3-13.3,9.3c0,4.3,1.9,7.6,8.4,10l16.9,6.1
	c14,5.1,20.9,12.5,20.9,25.3c0,19.4-15.2,28.7-36.5,28.7c-8,0-17-1.3-22-3.6c-8.2-3.6-9.8-8.1-9.8-15.3c0-5.5,0.4-10.1,0.8-13.4
	H445.9z"/>
</svg>
