<?xml version="1.0" encoding="utf-8"?>
<!-- Generator: Adobe Illustrator 18.1.1, SVG Export Plug-In . SVG Version: 6.00 Build 0)  -->
<svg version="1.1" id="Layer_1" xmlns="http://www.w3.org/2000/svg" xmlns:xlink="http://www.w3.org/1999/xlink" x="0px" y="0px"
	 viewBox="0 0 560 730" enable-background="new 0 0 560 730" xml:space="preserve">
<g display="none">
	<rect x="230" y="-1.7" display="inline" fill="#FF0000" width="100" height="100"/>
	<rect x="230" y="631.7" display="inline" fill="#FF0000" width="100" height="100"/>
	<rect x="484.4" y="318.3" display="inline" fill="#FF0000" width="100" height="100"/>
	<rect x="-24.4" y="318.3" display="inline" fill="#FF0000" width="100" height="100"/>
</g>
<path fill="#BB0000" d="M235.4,507L93,393l162-28.5l12.7,120.3C254.9,488.7,243.6,496.5,235.4,507z M511,302.5l-47.5-35.8l-196-11.4
	l8.7,82.1L511,302.5z M59.1,398.1L0,405.6v55l196.4,47.9L59.1,398.1z M560,295.4v-23l-53.7-3.1l38.7,28.4L560,295.4z M330.5,74.3
	L509,85.9l-52.6-52.6L330.5,74.3z M472,243.4l88,5.1V136.9l-25.5-25.5L273.9,94.4L472,243.4z M266.5,70.1l171-55.7L423,0H240.4
	l7.3,68.9L266.5,70.1z M0,136.9V157l205.6-67l-149-9.7L0,136.9z M264.9,231.4l164.3,9.5L251.8,107.5L264.9,231.4z M0,181.9V216
	l240.8,14l-12.9-122.3L0,181.9z M31.1,378.2L0,358.1v24.2L31.1,378.2z M0,239.8v91.1l65,42.2l187.5-32.2l-9.2-87L0,239.8z
	 M560,492.1l-182.6,46.6L560,551.1V492.1z M560,467.6V319.4l-9.9,1.7L345.4,521.8c0.1,0.2,0.2,0.4,0.2,0.5L560,467.6z M560,574.7
	L357.8,561l164.9,69.4l37.3-37.2V574.7z M515,324.4l-236.4,36.7l12.8,121.3c1.6,0.1,3.3,0.3,4.9,0.5c14.2,2.3,26.5,9.1,35.9,18.7
	L515,324.4z M328.1,594.8c-6.8,5.8-14.8,10.2-23.5,12.8L317.5,730H423l25.4-25.4L328.1,594.8z M465.3,687.8l39.3-39.3l-152.9-64.4
	L465.3,687.8z M269.1,608.1c-6.9-1.9-13.3-4.9-19-8.8L165.2,730h84.3L269.1,608.1z M222.5,539.3L0,485.1v108l21.3,21.3l204.4-46.7
	C222.5,558.8,221.4,549.2,222.5,539.3z M162.3,606.5L41.1,634.2l28.1,28L162.3,606.5z M285.7,654.7L273.6,730h20L285.7,654.7z
	 M222.4,598.3L86.5,679.6l50.4,50.4L222.4,598.3z M79,58l144.7,9.4L216.5,0H137L79,58z"/>
</svg>
